<?xml version="1.0" encoding="UTF-8" standalone="no"?>
<!-- Generator: Adobe Illustrator 14.0.0, SVG Export Plug-In . SVG Version: 6.00 Build 43363)  -->

<svg
   xmlns:dc="http://purl.org/dc/elements/1.1/"
   xmlns:cc="http://creativecommons.org/ns#"
   xmlns:rdf="http://www.w3.org/1999/02/22-rdf-syntax-ns#"
   xmlns:svg="http://www.w3.org/2000/svg"
   xmlns="http://www.w3.org/2000/svg"
   xmlns:xlink="http://www.w3.org/1999/xlink"
   xmlns:sodipodi="http://sodipodi.sourceforge.net/DTD/sodipodi-0.dtd"
   xmlns:inkscape="http://www.inkscape.org/namespaces/inkscape"
   id="Layer_1"
   enable-background="new 0 0 960 841.89"
   xml:space="preserve"
   viewBox="0 0 319.09436 399.66952"
   version="1.1"
   y="0px"
   x="0px"
   sodipodi:docname="hotairballoon-small.svg"
   inkscape:version="0.92.3 (2405546, 2018-03-11)"
   inkscape:export-filename="/home/hitman/Downloads/hotairballoon.png"
   inkscape:export-xdpi="96"
   inkscape:export-ydpi="96"
   width="319.09436"
   height="399.66953"><defs
   id="defs3795"><linearGradient
     inkscape:collect="always"
     id="linearGradient4606"><stop
       style="stop-color:#ed2224;stop-opacity:1;"
       offset="0"
       id="stop4602" /><stop
       style="stop-color:#ed2224;stop-opacity:0;"
       offset="1"
       id="stop4604" /></linearGradient><linearGradient
     inkscape:collect="always"
     xlink:href="#linearGradient4606"
     id="linearGradient4608"
     x1="316.95233"
     y1="404.32169"
     x2="636.04669"
     y2="404.32169"
     gradientUnits="userSpaceOnUse" /><linearGradient
     id="linearGradient2970"><stop
       style="stop-color:#924f20;stop-opacity:1;"
       offset="0"
       id="stop2972" /><stop
       id="stop3770"
       offset="0.11599973"
       style="stop-color:#c7ac44;stop-opacity:1;" /><stop
       id="stop2978"
       offset="0.21599954"
       style="stop-color:#d4c24d;stop-opacity:1;" /><stop
       style="stop-color:#cfba4a;stop-opacity:1;"
       offset="0.30399936"
       id="stop3766" /><stop
       style="stop-color:#b79640;stop-opacity:1;"
       offset="0.43199915"
       id="stop2980" /><stop
       id="stop3768"
       offset="0.48399901"
       style="stop-color:#bfa046;stop-opacity:1;" /><stop
       id="stop3756"
       offset="0.59999877"
       style="stop-color:#f3dd6d;stop-opacity:1;" /><stop
       id="stop2982"
       offset="0.65999871"
       style="stop-color:#fce774;stop-opacity:1;" /><stop
       style="stop-color:#efd868;stop-opacity:1;"
       offset="0.7199986"
       id="stop3758" /><stop
       id="stop3762"
       offset="0.79199839"
       style="stop-color:#cbae47;stop-opacity:1;" /><stop
       style="stop-color:#9c781c;stop-opacity:1;"
       offset="0.89999825"
       id="stop2984" /><stop
       id="stop3760"
       offset="0.92399818"
       style="stop-color:#976b1c;stop-opacity:1;" /><stop
       style="stop-color:#8b491c;stop-opacity:1;"
       offset="1"
       id="stop2974" /></linearGradient><linearGradient
     id="linearGradient2763"><stop
       style="stop-color:#fffded;stop-opacity:1;"
       offset="0"
       id="stop2765" /><stop
       id="stop2767"
       offset="0.04119987"
       style="stop-color:#fff9b6;stop-opacity:1;" /><stop
       id="stop2769"
       offset="0.08204883"
       style="stop-color:#fff67f;stop-opacity:1;" /><stop
       style="stop-color:#c19439;stop-opacity:1;"
       offset="1"
       id="stop2771" /></linearGradient><linearGradient
     id="linearGradient2751"><stop
       style="stop-color:#fffded;stop-opacity:1;"
       offset="0"
       id="stop2753" /><stop
       id="stop2755"
       offset="0.08204883"
       style="stop-color:#fff9b6;stop-opacity:1;" /><stop
       id="stop2757"
       offset="0.08204883"
       style="stop-color:#fff67f;stop-opacity:1;" /><stop
       style="stop-color:#c19439;stop-opacity:1;"
       offset="1"
       id="stop2759" /></linearGradient><linearGradient
     id="linearGradient3267"><stop
       style="stop-color:#fffded;stop-opacity:1;"
       offset="0"
       id="stop3269" /><stop
       id="stop3285"
       offset="0.38204542"
       style="stop-color:#fff9b6;stop-opacity:1;" /><stop
       id="stop3283"
       offset="0.62908947"
       style="stop-color:#fff67f;stop-opacity:1;" /><stop
       style="stop-color:#c19439;stop-opacity:1;"
       offset="1"
       id="stop3271" /></linearGradient><linearGradient
     id="linearGradient3302"><stop
       id="stop3304"
       offset="0"
       style="stop-color:#fffded;stop-opacity:1;" /><stop
       style="stop-color:#fff9b6;stop-opacity:1;"
       offset="0.03829331"
       id="stop3306" /><stop
       style="stop-color:#fff67f;stop-opacity:1;"
       offset="0.08204883"
       id="stop3308" /><stop
       id="stop3310"
       offset="1"
       style="stop-color:#c19439;stop-opacity:1;" /></linearGradient><radialGradient
     gradientUnits="userSpaceOnUse"
     gradientTransform="matrix(1.0366665,-0.4245674,0.5247482,1.2812781,-76.854038,51.659165)"
     r="214.71249"
     fy="165.49092"
     fx="229.42223"
     cy="165.49092"
     cx="229.42223"
     id="radialGradient2744"
     xlink:href="#linearGradient3267"
     inkscape:collect="always" /><radialGradient
     gradientUnits="userSpaceOnUse"
     gradientTransform="matrix(0.9749047,0,0,1.2010572,-0.1091145,-49.282104)"
     r="163.20354"
     fy="179.07094"
     fx="219.03064"
     cy="179.07094"
     cx="219.03064"
     id="radialGradient2746"
     xlink:href="#linearGradient3302"
     inkscape:collect="always" /><radialGradient
     gradientUnits="userSpaceOnUse"
     gradientTransform="matrix(0.9748035,0.01404305,-0.00476692,0.3308976,1.017571,152.34579)"
     r="191.23438"
     fy="233.71875"
     fx="124.24128"
     cy="233.71875"
     cx="124.24128"
     id="radialGradient2749"
     xlink:href="#linearGradient2751"
     inkscape:collect="always" /><radialGradient
     gradientUnits="userSpaceOnUse"
     gradientTransform="matrix(1.3480374,0.640155,-1.4585899,3.0714964,217.24436,-706.16162)"
     r="50.98447"
     fy="220.31578"
     fx="361.73175"
     cy="220.31578"
     cx="361.73175"
     id="radialGradient2761"
     xlink:href="#linearGradient2763"
     inkscape:collect="always" /><radialGradient
     r="50.98447"
     fy="248.53876"
     fx="397.10123"
     cy="248.53876"
     cx="397.10123"
     gradientTransform="matrix(1.3480374,0.640155,-1.4585899,3.0714964,217.24436,-706.16162)"
     gradientUnits="userSpaceOnUse"
     id="radialGradient2781"
     xlink:href="#linearGradient2763"
     inkscape:collect="always" /><linearGradient
     y2="314.62296"
     x2="350.38974"
     y1="616.89941"
     x1="350.38974"
     gradientTransform="matrix(0.6205484,0,0,0.6205484,-279.7408,41.891114)"
     gradientUnits="userSpaceOnUse"
     id="linearGradient4294"
     xlink:href="#linearGradient2970"
     inkscape:collect="always" /><radialGradient
     r="209.32422"
     fy="90.12397"
     fx="-110.42792"
     cy="90.12397"
     cx="-110.42792"
     gradientTransform="matrix(-2.1833415,5.2353276,-2.9242444,-1.2194941,-87.985563,779.2524)"
     gradientUnits="userSpaceOnUse"
     id="radialGradient4303"
     xlink:href="#linearGradient2970"
     inkscape:collect="always" /><radialGradient
     inkscape:collect="always"
     xlink:href="#linearGradient2763"
     id="radialGradient4992"
     gradientUnits="userSpaceOnUse"
     gradientTransform="matrix(1.3480374,0.640155,-1.4585899,3.0714964,217.24436,-706.16162)"
     cx="361.73175"
     cy="220.31578"
     fx="361.73175"
     fy="220.31578"
     r="50.98447" /><radialGradient
     inkscape:collect="always"
     xlink:href="#linearGradient2763"
     id="radialGradient4994"
     gradientUnits="userSpaceOnUse"
     gradientTransform="matrix(1.3480374,0.640155,-1.4585899,3.0714964,217.24436,-706.16162)"
     cx="361.73175"
     cy="220.31578"
     fx="361.73175"
     fy="220.31578"
     r="50.98447" /><filter
     id="filter15393"
     style="color-interpolation-filters:sRGB"><feGaussianBlur
       stdDeviation="30.57388"
       id="feGaussianBlur15395" /></filter><filter
     id="filter15393-6"
     style="color-interpolation-filters:sRGB"><feGaussianBlur
       id="feGaussianBlur15395-7"
       stdDeviation="30.57388" /></filter><filter
     inkscape:label="Drop Shadow"
     id="filter6308"
     style="color-interpolation-filters:sRGB"><feFlood
       result="flood"
       flood-color="rgb(0,0,0)"
       flood-opacity="0.8"
       id="feFlood6310" /><feComposite
       result="composite1"
       operator="in"
       in="flood"
       in2="SourceGraphic"
       id="feComposite6312" /><feGaussianBlur
       result="blur"
       stdDeviation="10"
       id="feGaussianBlur6314" /><feOffset
       result="offset"
       dy="20"
       dx="20"
       id="feOffset6316" /><feComposite
       result="composite2"
       operator="over"
       in="SourceGraphic"
       in2="offset"
       id="feComposite6318" /></filter></defs><sodipodi:namedview
   pagecolor="#ffffff"
   bordercolor="#666666"
   borderopacity="1"
   objecttolerance="10"
   gridtolerance="10"
   guidetolerance="10"
   inkscape:pageopacity="0"
   inkscape:pageshadow="2"
   inkscape:window-width="1920"
   inkscape:window-height="1016"
   id="namedview3793"
   showgrid="false"
   inkscape:zoom="1.39"
   inkscape:cx="191.12347"
   inkscape:cy="252.27435"
   inkscape:window-x="0"
   inkscape:window-y="27"
   inkscape:window-maximized="1"
   inkscape:current-layer="g3788"
   fit-margin-top="0"
   fit-margin-left="0"
   fit-margin-right="0"
   fit-margin-bottom="0" />
<g
   id="g3788"
   style="clip-rule:evenodd;fill-rule:evenodd"
   transform="translate(-316.95234,-304.7634)">
	<path
   d="m 462.12,651.47 c 4.308,-1.951 13.434,-8.286 13.434,-8.286 150.83,-88.167 150.82,-139.82 153.48,-156.31 1.928,-11.983 17.941,-83.381 -22,-128 -34.168,-38.167 -54,-36 -54,-36 0,0 -12.1,5.988 -21.307,-5.485 -8.373,-10.432 -19.705,-12.632 -27.984,-5.907 -6.805,5.528 -17.475,-2.875 -25.709,-3.607 -35.022,-3.117 -33.532,2.741 -43.5,2.418 -28.334,-0.918 -36.383,14.531 -43.5,17.582 -18.432,7.899 -66.346,31.659 -70.326,92.998 -0.552,8.502 -8.708,41.327 2.373,67.104 17.787,41.375 32.104,60.108 51.278,88.753 19.174,28.645 46.663,63.47 46.663,63.47 0,0 3.134,3.353 3.243,4.815 0.249,3.33 9.762,6.093 21.534,7.658 6.33,0.86 10.8,1.32 16.34,-1.19 z"
   id="path3774"
   style="fill:#3e58a8;fill-opacity:0.38709675"
   inkscape:connector-curvature="0" />
	<g
   id="g3780"
   style="opacity:1;fill:#ed2224;fill-opacity:0.54032258"
   transform="translate(0,78)">
		<path
   d="m 629.03,408.88 c -2.586,-84.082 -62.814,-110.52 -119,-141 -56.081,-6.3 -97.223,12.67 -128,42 -22.754,21.685 -43.708,53.596 -44,90 -0.332,41.403 19.17,73.949 38,101 -25.14,-32.089 -60.967,-80.434 -59,-134 1.025,-27.92 18.743,-57.382 34,-72 9.787,-9.377 25.943,-17.864 41,-25 33.965,-16.096 75.278,-13.443 115,-3 -27.004,-17.971 -76.451,-32.383 -116,-17 28.142,-34.029 94.458,-12.773 116,14 -5.141,-15.859 -13.402,-28.598 -29,-34 22.862,-11.492 35.036,10.891 34,33 3.877,-15.937 26.834,-36.451 41,-18 -15.205,4.796 -27.611,12.39 -39,21 27.182,-15.863 82.359,-14.651 93,15 -19.838,-11.938 -57.875,-20.658 -92,-13 59.771,10.562 120.19,22.316 121,90 0.35,29.66 -4.89,36.44 -7,51 z"
   id="path3776"
   style="fill:#ed2224;fill-opacity:0.54032258"
   inkscape:connector-curvature="0" />
		<path
   d="m 461.2,577.88 c 0.405,-0.973 -2.472,-0.467 0.925,-4.404 58.092,-36.351 136.33,-75.241 128.91,-171.6 -2.557,-33.195 -19.268,-58.244 -35,-81 -13.201,-19.093 -30.139,-41.582 -46,-53 12.691,39.307 30.994,89.392 26,143 -2.838,30.465 -17.383,61.369 -30,87 -5.881,11.944 -43.109,90.263 -63.023,74.984 6.845,-107.87 4.952,-232.1 55.857,-294.15 1.766,-2.152 7,-6 11.166,-10.834 -33.722,9.425 -64.235,22.035 -85,44 -21.179,22.401 -39.113,62.144 -41,100 -1.723,34.578 7.962,59.46 16,87 6.503,22.279 26.706,68.141 27.321,71.992 0.54,3.47 32.17,11.01 33.84,7.01 z m -12.17,4"
   id="path3778"
   style="fill:#ed2224;fill-opacity:0.54032258"
   inkscape:connector-curvature="0" />
	</g>
	<path
   d="m 454.32,696.26 c -0.846,5.437 -6.84,9.018 -13.389,8 l -13.832,-2.151 c -6.549,-1.018 -11.174,-6.248 -10.328,-11.686 l 2.805,-18.047 c 0.846,-5.437 6.84,-9.019 13.389,-8.001 l 13.832,2.151 c 6.549,1.018 11.174,6.25 10.328,11.687 l -2.81,18.05 z"
   id="path3782"
   inkscape:connector-curvature="0"
   style="fill:#989898" />
		<ellipse
   rx="15.401642"
   transform="rotate(9.3116086)"
   ry="6.9988375"
   cy="595.3855"
   cx="541.79022"
   id="ellipse3784"
   style="fill:#ffffff;stroke-width:0.99997675" />
	<path
   d="m 462.12,651.47 c 0,0 3.278,11.233 -21.258,8.403 -21.667,-2.499 -16.603,-14.859 -16.603,-14.859 12.68,6.7 22.94,6.55 37.86,6.46 z"
   id="path3786"
   inkscape:connector-curvature="0"
   style="fill:#989898" />
<g
   id="g4666"
   transform="matrix(0.92210351,0,0,0.89369653,363.2341,393.84609)"><path
     id="path4662"
     d="M 63.033,39.744 C 58.759,56.887 41.396,67.32 24.251,63.045 7.113,58.771 -3.32,41.407 0.956,24.265 5.228,7.12 22.591,-3.314 39.731,0.96 56.875,5.234 67.307,22.6 63.033,39.744 Z"
     inkscape:connector-curvature="0"
     style="fill:#f7931a" /><path
     id="path4664"
     d="M 46.103,27.444 C 46.74,23.186 43.498,20.897 39.065,19.37 l 1.438,-5.768 -3.511,-0.875 -1.4,5.616 c -0.923,-0.23 -1.871,-0.447 -2.813,-0.662 l 1.41,-5.653 -3.509,-0.875 -1.439,5.766 c -0.764,-0.174 -1.514,-0.346 -2.242,-0.527 l 0.004,-0.018 -4.842,-1.209 -0.934,3.75 c 0,0 2.605,0.597 2.55,0.634 1.422,0.355 1.679,1.296 1.636,2.042 l -1.638,6.571 c 0.098,0.025 0.225,0.061 0.365,0.117 -0.117,-0.029 -0.242,-0.061 -0.371,-0.092 l -2.296,9.205 c -0.174,0.432 -0.615,1.08 -1.609,0.834 0.035,0.051 -2.552,-0.637 -2.552,-0.637 l -1.743,4.019 4.569,1.139 c 0.85,0.213 1.683,0.436 2.503,0.646 l -1.453,5.834 3.507,0.875 1.439,-5.772 c 0.958,0.26 1.888,0.5 2.798,0.726 l -1.434,5.745 3.511,0.875 1.453,-5.823 c 5.987,1.133 10.489,0.676 12.384,-4.739 1.527,-4.36 -0.076,-6.875 -3.226,-8.515 2.294,-0.529 4.022,-2.038 4.483,-5.155 z m -8.022,11.249 c -1.085,4.36 -8.426,2.003 -10.806,1.412 l 1.928,-7.729 c 2.38,0.594 10.012,1.77 8.878,6.317 z m 1.086,-11.312 c -0.99,3.966 -7.1,1.951 -9.082,1.457 l 1.748,-7.01 c 1.982,0.494 8.365,1.416 7.334,5.553 z"
     inkscape:connector-curvature="0"
     style="fill:#ffffff" /></g><g
   id="g4751"
   transform="matrix(0.21779148,0,0,0.16901082,528.99639,477.73029)"><polygon
     id="polygon4739"
     points="127.9611,287.958 255.9231,212.32 127.9611,0 125.1661,9.5 125.1661,285.168 "
     style="fill:#343434" /><polygon
     id="polygon4741"
     points="127.962,287.959 127.962,154.158 127.962,0 0,212.32 "
     style="fill:#8c8c8c" /><polygon
     id="polygon4743"
     points="127.9611,416.9066 255.9991,236.5866 127.9611,312.1866 126.3861,314.1066 126.3861,412.3056 "
     style="fill:#3c3c3b" /><polygon
     id="polygon4745"
     points="0,236.5852 127.962,416.9052 127.962,312.1852 "
     style="fill:#8c8c8c" /><polygon
     id="polygon4747"
     points="127.9611,154.1587 127.9611,287.9577 255.9211,212.3207 "
     style="fill:#141414" /><polygon
     id="polygon4749"
     points="127.9609,154.1588 0.0009,212.3208 127.9609,287.9578 "
     style="fill:#393939" /></g><g
   transform="matrix(0.15570537,0,0,0.1236342,415.18402,533.43686)"
   id="g3">
	<g
   id="g5">
		<g
   id="g7"
   enable-background="new    ">
			<path
   sodipodi:nodetypes="ccccccscccccscccsscccscsscccccsscccccssscsccccccccc"
   id="polygon2565"
   d="M 262.81049,0.83205675 C 167.76118,0.83205675 83.576456,69.022247 57.379795,156.39029 H 14.179332 L -2.2417184,190.93847 9.4266719,202.78966 H 49.306366 c -0.08564,1.81525 -0.157648,3.63693 -0.213261,5.45337 -0.176457,5.76363 -0.356328,11.51144 0.426521,17.27409 H 12.077194 L -4.3438566,260.0653 7.3245339,271.91649 H 57.471192 c 9.719711,31.63414 27.059719,60.16007 49.842008,83.29342 0.10069,0.10224 0.20374,0.20261 0.30465,0.30465 0.53636,0.55023 1.0756,1.09765 1.61469,1.64516 l 9.74905,9.90137 c 36.57257,37.13802 87.16014,60.38315 142.79306,60.38316 49.83323,0 97.19801,-18.69793 134.41498,-49.50688 1.86305,-1.5423 3.7039,-3.11945 5.51431,-4.72219 l 1.52329,-49.9334 -11.66839,-11.85119 c -32.97908,42.23775 -84.22104,69.61428 -140.38627,69.61429 -43.89787,0 -83.67121,-16.63427 -113.42407,-43.96211 -0.77248,-0.86657 -1.56103,-1.73731 -2.3154,-2.62005 -9.69445,-11.34302 -17.88682,-24.01923 -24.28122,-37.71663 -3.71243,-7.95229 -6.82043,-16.24265 -9.26159,-24.8296 h 233.79432 l 16.42105,-34.54818 -11.66839,-11.85119 H 95.187818 c 0.02558,-1.81516 0.06625,-3.63702 0.12186,-5.45337 0.06825,-2.21694 0.15574,-4.83091 0.33513,-7.58598 0.20862,-3.20451 0.5474,-6.5889 1.15769,-9.68811 H 368.52671 L 384.9173,168.24147 373.24891,156.39029 H 109.62859 c 1.56999,-3.67622 3.27436,-7.29133 5.08779,-10.84582 3.29713,-6.46264 6.97691,-12.72908 11.02861,-18.73645 4.41729,-6.54941 9.26647,-12.8139 14.5017,-18.73645 6.27546,-7.10023 13.09249,-13.71423 20.41207,-19.772285 30.76702,-25.46646 70.12319,-41.037394 112.75382,-41.037393 46.47412,0 83.97067,16.163427 112.63195,42.591147 4.17461,4.663169 8.12333,9.564697 11.85119,14.684501 l 11.66839,11.85119 16.42105,-34.091202 c -2.8477,-3.280554 -5.82384,-6.447288 -8.86554,-9.535786 l -9.29206,-9.413924 C 371.06556,24.774598 319.86326,0.83205665 262.81049,0.83205675 Z M 110.39024,304.63673 c -7.36328,-11.48957 6.7879,10.37177 0,0 z"
   style="fill:#e4cc61;fill-opacity:1"
   inkscape:connector-curvature="0" /><path
   id="polygon11"
   d="M -2.2417184,190.93847 9.4266719,202.78966 H 62.254318 l -11.66839,-11.85119 z m 87.3758304,0 11.668386,11.85119 H 368.52671 L 356.85832,190.93847 Z M -4.3438566,260.0653 7.3245339,271.91649 H 65.879745 L 54.211355,260.0653 Z m 94.5657526,0 11.668394,11.85119 H 335.68461 L 324.01622,260.0653 Z"
   style="fill:url(#radialGradient2749)"
   inkscape:connector-curvature="0" />
			<path
   id="path23"
   d="m 261.74419,35.410707 c -42.62966,0 -81.98583,15.571904 -112.75382,41.037393 -7.31861,6.058058 -14.13661,12.672054 -20.41207,19.772285 -5.23426,5.922555 -10.08344,12.188015 -14.5017,18.736455 -4.05073,6.00736 -7.73148,12.27381 -11.02861,18.73645 -3.224992,6.32128 -6.088282,12.83682 -8.530422,19.52856 -0.383136,1.04997 -0.764567,2.10969 -1.127232,3.16844 l 11.668394,11.85118 c 0.36364,-1.05875 0.74409,-2.11846 1.12723,-3.16844 2.44311,-6.69174 5.30543,-13.20729 8.53042,-19.52856 3.29713,-6.46264 6.97691,-12.72908 11.02861,-18.73645 4.41729,-6.54941 9.26647,-12.8139 14.5017,-18.73645 6.27546,-7.10023 13.09249,-13.71423 20.41207,-19.772285 30.76702,-25.46646 70.12319,-41.037394 112.75382,-41.037393 49.74548,0 89.19085,18.513924 118.54231,48.318712 L 380.2865,83.729419 C 350.93407,53.924634 311.48968,35.411683 261.74419,35.410707 Z M 85.134112,190.93847 c -0.611265,3.09922 -0.948095,6.48361 -1.157699,9.68812 -0.179382,2.75605 -0.266882,5.39853 -0.335123,7.61644 -0.177433,5.76363 -0.356324,11.51144 0.42652,17.27409 l 11.668388,11.85119 c -0.78285,-5.76364 -0.60298,-11.54093 -0.42652,-17.30456 0.06825,-2.21694 0.15574,-4.83091 0.33513,-7.58598 0.20862,-3.20451 0.5474,-6.5889 1.15769,-9.68811 z m 5.087784,69.12683 c 2.442136,8.58599 5.549162,16.87732 9.261592,24.82961 6.395382,13.69741 14.586772,26.37263 24.281222,37.71662 2.54938,2.98224 5.19941,5.88769 7.95157,8.68275 l 9.62718,9.74904 c -2.02589,-2.13589 -3.99833,-4.3432 -5.91036,-6.5806 -9.69445,-11.34302 -17.88682,-24.01923 -24.28122,-37.71663 -3.71243,-7.95229 -6.82043,-16.24265 -9.26159,-24.8296 z m 17.091304,95.14461 11.66839,11.85118 c 36.57257,37.13802 87.16014,60.38315 142.79306,60.38316 49.83323,0 97.19801,-18.69793 134.41498,-49.50688 1.86305,-1.5423 3.7039,-3.11945 5.51431,-4.72219 l -11.66839,-11.85119 c -1.81137,1.60275 -3.65127,3.17991 -5.51431,4.7222 -37.21698,30.80893 -84.58272,49.50686 -134.41498,49.50687 -55.63293,0 -106.21952,-23.24514 -142.79306,-60.38315 z"
   style="fill:url(#radialGradient2746)"
   inkscape:connector-curvature="0" />
			
			
			
			<path
   style="fill:#626700"
   id="path79"
   d="m 405.46293,60.901295 11.67058,11.849966 c 3.0417,3.088498 5.98884,6.275462 8.83654,9.556016 L 414.29946,70.457311 c -2.84769,-3.280554 -5.79483,-6.467518 -8.83653,-9.556016"
   inkscape:connector-curvature="0" />
			<path
   id="path2779"
   d="m 414.2863,70.446343 -16.39058,34.091197 11.66839,11.85119 16.42105,-34.091202 z"
   style="fill:url(#radialGradient4992);fill-opacity:1"
   inkscape:connector-curvature="0" /><path
   id="path2777"
   d="m 373.24891,156.39029 -16.39059,34.54818 11.66839,11.85119 16.39059,-34.54819 z"
   style="fill:url(#radialGradient4994);fill-opacity:1"
   inkscape:connector-curvature="0" /><path
   id="path2775"
   d="m 340.43727,225.51712 -16.42105,34.54818 11.66839,11.85119 16.42105,-34.54818 z"
   style="fill:url(#radialGradient2761);fill-opacity:1"
   inkscape:connector-curvature="0" /><path
   id="polygon83"
   d="m 391.55884,311.43059 -1.52329,49.9334 11.66839,11.85119 1.52329,-49.9334 z"
   style="fill:url(#radialGradient2781);fill-opacity:1"
   inkscape:connector-curvature="0" />
			
			
			
			
			
			
			
		<path
   d="m 262.81457,0.84682461 c 60.48601,0 114.38556,26.88104639 151.48556,69.61014339 l -16.40667,34.079752 c -30.40728,-41.761026 -75.65163,-69.1266 -136.13764,-69.1266 -77.76717,0 -144.63588,51.84543 -168.355323,120.97202 H 373.26054 l -16.41349,34.56329 H 85.136237 c -1.13577,5.76364 -1.34147,12.48561 -1.48868,17.28214 -0.17646,5.76363 -0.35292,11.5185 0.42993,17.28116 H 340.42575 l -16.42227,34.56329 H 90.225237 c 19.930953,70.08687 84.139153,120.97202 160.947023,120.97202 56.16523,0 107.40622,-27.3646 140.38529,-69.60234 l -1.52865,49.91804 c -37.99398,33.60497 -87.58543,54.2476 -139.91442,54.2476 -94.56575,0 -174.595683,-67.20798 -195.895397,-155.53532 H -4.3483154 L 12.072979,225.50873 h 37.441214 c -0.782848,-5.76266 -0.606391,-11.51753 -0.429933,-17.28116 0.176458,-5.76364 0.352916,-11.5185 1.488679,-17.28214 H -2.2317974 L 14.189497,156.38214 H 57.393372 C 83.590037,69.014109 167.76526,0.84682461 262.81457,0.84682461 Z"
   id="path4301"
   style="opacity:1;fill:url(#radialGradient4303);fill-opacity:1"
   inkscape:connector-curvature="0" /></g>
	</g>
</g><g
   style="fill:none;stroke:#000000"
   id="g5060"
   transform="matrix(0.15077942,0,0,0.12263083,480.84613,401.06746)"><path
     id="path5046"
     d="m 119,312 c 4,70 58,111 130,110 78,1 129,-34 125,-101 -11,-61 -78,-69 -122,-79 -48,-16 -118,-16 -117,-89 -1,-53 59,-84 117,-78 60,1 111,32 112,96"
     inkscape:connector-curvature="0"
     style="stroke-width:45" /><path
     id="path5048"
     d="m 205,17 v 464 m 90,0 V 17"
     inkscape:connector-curvature="0"
     style="stroke-width:35" /></g></g>
<metadata
   id="metadata3790"><rdf:RDF><cc:Work><dc:format>image/svg+xml</dc:format><dc:type
         rdf:resource="http://purl.org/dc/dcmitype/StillImage" /><cc:license
         rdf:resource="http://creativecommons.org/publicdomain/zero/1.0/" /><dc:publisher><cc:Agent
           rdf:about="http://openclipart.org/"><dc:title>Openclipart</dc:title></cc:Agent></dc:publisher><dc:title>Hot Air Balloon</dc:title><dc:date>2010-09-23T20:30:12</dc:date><dc:description>A hot air balloon</dc:description><dc:source>https://openclipart.org/detail/86467/hot-air-balloon-by-wildchief</dc:source><dc:creator><cc:Agent><dc:title>wildchief</dc:title></cc:Agent></dc:creator><dc:subject><rdf:Bag><rdf:li>air</rdf:li><rdf:li>balloon</rdf:li><rdf:li>basket</rdf:li><rdf:li>hot</rdf:li><rdf:li>transportation</rdf:li></rdf:Bag></dc:subject></cc:Work><cc:License
       rdf:about="http://creativecommons.org/publicdomain/zero/1.0/"><cc:permits
         rdf:resource="http://creativecommons.org/ns#Reproduction" /><cc:permits
         rdf:resource="http://creativecommons.org/ns#Distribution" /><cc:permits
         rdf:resource="http://creativecommons.org/ns#DerivativeWorks" /></cc:License></rdf:RDF></metadata></svg>